<svg width="100" height="100" viewBox="0 0 100 100" fill="none" xmlns="http://www.w3.org/2000/svg">
<circle cx="50" cy="50" r="50" fill="white"/>
<path d="M43.2218 90.96C42.8618 86.4859 42.6047 82.1403 42.4504 77.9234C42.3476 73.7064 42.2962 69.7209 42.2962 65.9667C42.2962 59.7442 42.4247 54.1644 42.6819 49.2275C42.939 44.2391 43.1961 39.945 43.4532 36.3451C39.0306 36.6023 34.7365 36.9366 30.5709 37.348C26.4054 37.7594 22.5484 38.2993 19 38.9679L19.1543 26.0856C25.1712 25.0056 31.3423 24.2342 37.6678 23.7714C43.9932 23.2571 50.3187 23 56.6441 23C61.1696 23 65.4895 23.1029 69.6036 23.3086C73.7691 23.5143 77.7547 23.8228 81.5602 24.2342L81.4831 37.5794C77.8832 37.0137 73.9748 36.628 69.7578 36.4223C65.5923 36.1652 61.3239 36.0366 56.9527 36.0366C56.6955 39.5336 56.4641 43.442 56.2584 47.7618C56.0527 52.0302 55.9499 56.6071 55.9499 61.4926C55.9499 65.8639 56.0527 70.4666 56.2584 75.3006C56.5156 80.1347 56.8241 85.2259 57.1841 90.5743L43.2218 90.96Z" fill="url(#paint0_linear_198_4)"/>
<defs>
<linearGradient id="paint0_linear_198_4" x1="18.0225" y1="16.496" x2="95.282" y2="67.5906" gradientUnits="userSpaceOnUse">
<stop stop-color="#130D38"/>
<stop offset="1" stop-color="#33277E"/>
</linearGradient>
</defs>
</svg>
